<svg width="339" height="339" xmlns="http://www.w3.org/2000/svg" xmlns:xlink="http://www.w3.org/1999/xlink" xml:space="preserve" overflow="hidden"><defs><clipPath id="clip0"><rect x="870" y="133" width="339" height="339"/></clipPath></defs><g clip-path="url(#clip0)" transform="translate(-870 -133)"><path d="M1130.54 367.31 1045.35 367.31 1045.23 451.13 1130.42 451.13Z" fill="#E4E4E4"/><path d="M1076.43 388.624 1094.43 406.633 1106.09 394.98 1088.08 376.971 1076.44 376.987Z" fill="#FFFFFF"/><path d="M1130.54 387.211 1089.39 387.211 1089.39 367.933 1086.56 367.933 1086.56 387.211 1045.35 387.211 1045.35 390.036 1086.56 390.036 1086.56 451.134 1089.39 451.134 1089.39 390.036 1130.54 390.036Z" fill="#D1D1D1"/><path d="M1114.16 358.939C1113.2 355.978 1108.35 355.056 1102.74 356.699 1104.12 354.67 1105.09 352.529 1105.49 350.607 1106.01 348.117 1105.52 346.187 1104.13 345.173 1102.73 344.158 1100.75 344.294 1098.54 345.554 1096.82 346.53 1095.08 348.126 1093.57 350.076 1093.4 344.247 1091.02 339.935 1087.92 339.935 1084.8 339.935 1082.43 344.258 1082.26 350.099 1078.69 345.492 1074.24 343.401 1071.72 345.226 1069.2 347.057 1069.83 351.951 1073.13 356.779 1067.53 355.145 1062.69 356.069 1061.73 359.026 1060.73 362.1 1064.41 365.86 1070.29 367.771 1073.53 368.822 1079.5 369.024 1083.61 369.024 1086.02 369.024 1090.49 368.937 1092.29 368.937 1096.39 368.937 1102.37 368.736 1105.6 367.684 1111.48 365.774 1115.16 362.014 1114.16 358.939ZM1095.45 352.275C1096.8 350.422 1098.43 348.867 1099.94 348.008 1100.82 347.504 1101.49 347.326 1101.94 347.326 1102.18 347.326 1102.36 347.377 1102.47 347.458 1102.78 347.689 1103.04 348.502 1102.73 350.034 1102.37 351.731 1101.4 353.767 1100.05 355.62 1100.05 355.62 1100.05 355.62 1100.05 355.62 1098.82 357.324 1096.28 359.521 1093.77 361.477 1092.69 362.206 1091.66 362.933 1090.75 363.596 1090.74 363.6 1090.74 363.598 1090.74 363.592 1091.09 362.522 1091.46 361.325 1091.81 360.082 1092.9 357.091 1094.21 353.984 1095.45 352.275ZM1087.92 342.76C1088.88 342.76 1090.76 345.591 1090.76 350.781 1090.76 352.887 1090 356.158 1089.12 359.21 1088.68 360.435 1088.27 361.631 1087.92 362.705 1087.92 362.711 1087.91 362.711 1087.91 362.705 1087.56 361.635 1087.16 360.449 1086.71 359.233 1085.84 356.174 1085.07 352.893 1085.07 350.781 1085.07 345.591 1086.95 342.76 1087.92 342.76ZM1073.38 347.512C1073.5 347.425 1073.68 347.379 1073.9 347.379 1075.14 347.379 1077.82 348.774 1080.4 352.328 1080.4 352.329 1080.4 352.329 1080.4 352.329 1081.64 354.032 1082.94 357.127 1084.03 360.11 1084.39 361.363 1084.76 362.57 1085.11 363.646 1085.11 363.652 1085.11 363.654 1085.1 363.65 1084.19 362.99 1083.16 362.267 1082.09 361.543 1079.58 359.584 1077.04 357.382 1075.79 355.674 1072.74 351.475 1072.6 348.08 1073.38 347.512ZM1071.17 365.084C1066.23 363.48 1064.12 360.818 1064.42 359.899 1064.6 359.346 1065.86 358.794 1067.91 358.794 1069.26 358.794 1070.96 359.034 1072.92 359.671 1072.92 359.671 1072.92 359.671 1072.92 359.671 1074.93 360.322 1077.8 362.059 1080.43 363.833 1081.53 364.69 1082.61 365.492 1083.57 366.189 1083.57 366.193 1083.57 366.196 1083.56 366.196 1079.65 366.204 1074.03 366.014 1071.17 365.084ZM1104.73 364.997C1101.86 365.928 1096.25 366.123 1092.33 366.109 1092.32 366.109 1092.32 366.107 1092.33 366.103 1093.28 365.409 1094.35 364.611 1095.44 363.761 1098.08 361.982 1100.96 360.237 1102.97 359.584 1107.9 357.981 1111.18 358.894 1111.48 359.813 1111.78 360.731 1109.66 363.394 1104.73 364.997Z" fill="#D1D1D1"/><path d="M947.244 366.384 1010.74 366.384 1010.74 450.428 947.244 450.428Z" fill="#737373"/><path d="M998.363 398.573C996.617 397.558 994.526 397.548 992.769 398.547L980.671 405.43 980.671 366.384 978.023 366.384 978.023 405.832 965.218 398.547C963.462 397.548 961.371 397.557 959.625 398.574 957.878 399.589 956.835 401.402 956.835 403.422 956.835 406.515 959.352 409.031 962.445 409.031L976.204 409.031 964.7 420.535 966.573 422.408 978.023 410.958 978.023 450.075 980.671 450.075 980.671 411.172 991.907 422.408 993.78 420.535 982.276 409.031 995.543 409.031C998.636 409.031 1001.15 406.515 1001.15 403.422 1001.15 401.402 1000.11 399.589 998.363 398.573ZM962.445 406.383C960.61 406.383 959.159 404.706 959.547 402.804 959.686 402.121 960.077 401.501 960.632 401.079 961.178 400.665 961.811 400.457 962.445 400.457 962.947 400.457 963.45 400.588 963.909 400.849L973.624 406.377C973.631 406.38 973.63 406.383 973.622 406.383L962.445 406.383ZM995.446 406.383 984.366 406.383C984.358 406.383 984.357 406.381 984.364 406.377L994.079 400.849C995.006 400.322 996.11 400.327 997.032 400.863 997.994 401.422 998.551 402.44 998.501 403.562 998.43 405.158 997.044 406.383 995.446 406.383Z" fill="#505050"/><path d="M1046.12 395.34 1046.12 385.146C1046.12 376.236 1038.87 368.987 1029.96 368.987 1029.32 368.987 1028.69 369.029 1028.07 369.102 1027.44 369.029 1026.81 368.987 1026.17 368.987 1017.26 368.987 1010.01 376.236 1010.01 385.146L1010.01 395.34 999.444 395.34 999.444 451.134 1054.89 451.134 1054.89 395.34 1046.12 395.34ZM1044.26 385.146 1044.26 395.34 1042.33 395.34 1042.33 385.146C1042.33 379.717 1039.64 374.908 1035.52 371.976 1035.5 371.966 1035.5 371.963 1035.52 371.97 1040.65 374.144 1044.26 379.231 1044.26 385.146ZM1028.07 370.973C1035.06 371.902 1040.47 377.902 1040.47 385.146L1040.47 395.34 1015.66 395.34 1015.66 385.146C1015.66 377.901 1021.07 371.902 1028.07 370.973ZM1011.87 385.146C1011.87 379.231 1015.48 374.144 1020.61 371.97 1020.63 371.963 1020.63 371.966 1020.61 371.976 1016.49 374.908 1013.8 379.716 1013.8 385.146L1013.8 395.34 1011.87 395.34 1011.87 385.146Z" fill="#BB3E03"/><path d="M1027.87 455.372 972.193 455.365 972.193 418.248 1027.87 418.248Z" fill="#F1F1F1"/><path d="M1000.03 450.151C999.928 450.151 999.832 450.107 999.765 450.03L973.938 420.491C973.81 420.345 973.824 420.121 973.971 419.993 974.119 419.865 974.341 419.88 974.47 420.027L1000.03 449.258C1000.03 449.26 1000.03 449.26 1000.03 449.258L1025.59 420.027C1025.72 419.879 1025.94 419.865 1026.09 419.993 1026.24 420.121 1026.25 420.345 1026.12 420.491L1000.3 450.03C1000.23 450.107 1000.13 450.151 1000.03 450.151Z" fill="#D1D1D1"/><path d="M974.977 452.934C974.886 452.934 974.796 452.9 974.727 452.831 974.589 452.693 974.589 452.47 974.727 452.332L986.944 440.114C987.082 439.976 987.306 439.976 987.444 440.114 987.582 440.252 987.582 440.475 987.444 440.614L975.226 452.831C975.157 452.9 975.067 452.934 974.977 452.934Z" fill="#D1D1D1"/><path d="M1024.69 452.538C1024.6 452.538 1024.51 452.503 1024.44 452.434L1012.46 440.459C1012.32 440.32 1012.32 440.097 1012.46 439.959 1012.6 439.821 1012.82 439.821 1012.96 439.959L1024.94 451.935C1025.07 452.073 1025.07 452.296 1024.94 452.434 1024.87 452.503 1024.78 452.538 1024.69 452.538Z" fill="#D1D1D1"/><path d="M1000.03 429.131C1000.03 429.132 1000.03 429.132 1000.03 429.131 999.962 429.061 994.927 423.904 994.927 428.513 994.927 431.902 1000.03 435.936 1000.03 435.936 1000.03 435.936 1005.13 431.902 1005.13 428.513 1005.13 423.904 1000.1 429.061 1000.03 429.131Z" fill="#BB3E03"/><path d="M1028.52 373.114C1028.43 373.081 1028.27 373.071 1028.14 373.214L1017.89 384.867C1017.77 385.013 1017.78 385.236 1017.93 385.365 1018.07 385.494 1018.3 385.479 1018.43 385.333L1026.74 375.873C1026.75 375.861 1026.75 375.863 1026.74 375.877L1017.85 393.059C1017.76 393.232 1017.82 393.445 1018 393.535 1018.05 393.562 1018.1 393.574 1018.16 393.574 1018.29 393.574 1018.41 393.505 1018.47 393.384L1027.2 376.528C1027.21 376.512 1027.21 376.513 1027.21 376.53L1022.76 393.13C1022.71 393.318 1022.82 393.512 1023.01 393.562 1023.04 393.571 1023.07 393.574 1023.1 393.574 1023.26 393.574 1023.4 393.47 1023.44 393.313L1028.04 376.155C1028.04 376.141 1028.05 376.141 1028.05 376.156L1028.05 393.221C1028.05 393.417 1028.21 393.574 1028.4 393.574 1028.6 393.574 1028.75 393.417 1028.75 393.221L1028.75 373.446C1028.75 373.238 1028.61 373.146 1028.52 373.114Z" fill="#E5E5E5"/><path d="M1058.87 302.857C1058.69 302.772 1058.48 302.845 1058.4 303.021L1029.8 361.712C1029.8 361.716 1029.79 361.713 1029.8 361.709L1048.2 292.142C1048.25 291.953 1048.13 291.76 1047.94 291.71 1047.76 291.661 1047.56 291.772 1047.51 291.961L1028.88 362.406C1028.88 362.409 1028.87 362.409 1028.87 362.404L1028.87 290.727C1028.87 290.532 1028.72 290.374 1028.52 290.374 1028.33 290.374 1028.17 290.532 1028.17 290.727L1028.17 362.261C1028.17 362.266 1028.16 362.266 1028.16 362.262L1010.59 292.23C1010.54 292.041 1010.35 291.926 1010.16 291.974 1009.97 292.021 1009.86 292.213 1009.9 292.402L1027.35 361.919C1027.35 361.923 1027.34 361.925 1027.34 361.921L997.321 300.372C997.235 300.197 997.023 300.124 996.849 300.209 996.673 300.295 996.6 300.506 996.686 300.681L1028.2 365.303C1028.25 365.404 1028.35 365.502 1028.51 365.502 1028.68 365.502 1028.77 365.413 1028.84 365.303L1059.03 303.329C1059.12 303.154 1059.04 302.943 1058.87 302.857Z" fill="#E5E5E5"/><path d="M1028.26 141.09C1010.78 141.09 996.603 158.719 996.477 180.524 996.477 180.622 996.475 180.719 996.475 180.817 996.475 197.003 1004.22 210.925 1015.33 217.116 1019.28 219.318 1023.65 220.544 1028.26 220.544 1033.63 220.544 1038.69 218.875 1043.12 215.934 1053.1 209.322 1059.92 196.268 1060.03 181.208 1060.03 181.078 1060.04 180.948 1060.04 180.817 1060.04 158.877 1045.81 141.09 1028.26 141.09Z" fill="#E8E8E8"/><path d="M1085.75 175.02C1076.89 172.645 1067.65 175.202 1060.03 181.209 1053.2 186.675 1044.23 205.249 1043.12 215.934 1042.45 233.02 1051.13 248 1065.19 251.766 1082.14 256.309 1100.49 242.811 1106.17 221.618 1111.85 200.426 1102.71 179.563 1085.75 175.02Z" fill="#D1D1D1"/><path d="M1060.03 181.208C1053.08 186.693 1047.48 195.052 1044.77 205.167 1043.8 208.792 1043.26 212.408 1043.12 215.934 1053.1 209.322 1059.92 196.268 1060.03 181.208Z" fill="#DDDDDD"/><path d="M996.477 180.524C989.259 175.551 980.812 173.581 972.686 175.758 955.731 180.301 946.591 201.164 952.269 222.357 957.948 243.55 976.295 257.047 993.25 252.504 1007.18 248.771 1015.84 234.017 1015.33 217.116 1014.43 202.001 1003.55 186.746 996.477 180.524Z" fill="#DBDBDB"/><path d="M996.477 180.524C996.477 180.622 996.475 180.719 996.475 180.817 996.475 197.003 1004.22 210.925 1015.33 217.116 1015.22 213.45 1014.68 209.684 1013.67 205.906 1010.71 194.872 1004.32 185.926 996.477 180.524Z" fill="#D1D1D1"/><path d="M1057.62 228.54C1052.45 215.336 1041.6 206.242 1029.05 206.242 1016.79 206.242 1006.16 214.917 1000.86 227.623 998.565 233.111 997.269 239.35 997.269 245.969 997.269 260.929 1003.89 273.956 1013.66 280.732 1017.56 283.437 1021.97 285.147 1026.66 285.584 1027.28 285.641 1027.54 286.406 1027.1 286.848L1025.31 288.64C1025.31 288.643 1025.31 288.646 1025.31 288.646L1032.79 288.646C1032.79 288.646 1032.79 288.643 1032.79 288.64L1031 286.848C1030.55 286.404 1030.83 285.641 1031.45 285.583 1036.58 285.104 1041.38 283.1 1045.54 279.933 1054.71 272.964 1060.83 260.36 1060.83 245.968 1060.83 239.716 1059.67 233.802 1057.62 228.54Z" fill="#BB3E03"/><path d="M1013.3 251.297C1010.68 241.509 1001.61 228.238 1000.86 227.623 993.08 221.276 983.591 218.449 974.467 220.894 957.513 225.437 948.373 246.299 954.051 267.492 959.469 287.713 976.42 300.928 992.691 298.151 993.306 298.046 993.76 298.717 993.449 299.257L992.181 301.452C992.179 301.456 992.181 301.458 992.185 301.457L999.405 299.523C999.409 299.522 999.41 299.519 999.406 299.516L997.21 298.249C996.669 297.937 996.729 297.129 997.315 296.912 1004.63 294.202 1010.27 288.308 1013.66 280.732 1014.76 278.276 1016.15 261.956 1013.3 251.297Z" fill="#737373"/><path d="M1085.08 220.894C1075.53 218.335 1065.57 221.537 1057.62 228.54 1056.41 229.597 1048.69 241.476 1046.21 250.732 1043.44 261.058 1044.41 277.216 1045.54 279.934 1048.87 287.898 1054.65 294.104 1062.22 296.91 1062.81 297.128 1062.87 297.94 1062.33 298.254L1060.14 299.516C1060.14 299.519 1060.14 299.522 1060.14 299.523L1067.36 301.457C1067.36 301.458 1067.37 301.456 1067.36 301.452L1066.1 299.257C1065.78 298.717 1066.24 298.046 1066.85 298.151 1083.12 300.928 1100.08 287.713 1105.49 267.492 1111.17 246.299 1102.03 225.437 1085.08 220.894Z" fill="#E5E5E5"/><path d="M1060.83 245.969C1060.83 239.716 1059.67 233.802 1057.62 228.54 1051.47 233.998 1046.58 241.785 1044.1 251.041 1041.33 261.367 1042.08 271.614 1045.54 279.933 1054.71 272.964 1060.83 260.36 1060.83 245.969Z" fill="#F1F1F1"/><path d="M1015.45 251.041C1012.82 241.253 1007.5 233.108 1000.86 227.623 998.566 233.111 997.269 239.35 997.269 245.969 997.269 260.929 1003.89 273.956 1013.66 280.732 1017.41 272.274 1018.3 261.7 1015.45 251.041Z" fill="#505050"/><path d="M1009.22 224.221C1009.02 224.221 1008.81 224.162 1008.63 224.038 1008.15 223.71 1008.02 223.051 1008.35 222.567 1013.48 214.998 1021.21 210.479 1029.05 210.479 1029.64 210.479 1030.11 210.953 1030.11 211.539 1030.11 212.124 1029.64 212.598 1029.05 212.598 1021.92 212.598 1014.83 216.769 1010.1 223.755 1009.9 224.058 1009.56 224.221 1009.22 224.221Z" fill="#FFFFFF"/><path d="M957.767 252.909C957.741 252.909 957.715 252.908 957.688 252.906 957.105 252.863 956.666 252.356 956.709 251.772 957.081 246.713 958.335 242.058 960.435 237.939 962.552 233.787 965.503 230.353 968.968 228.008 971.001 226.633 973.22 225.616 975.564 224.987 976.129 224.835 976.71 225.171 976.861 225.736 977.013 226.301 976.678 226.882 976.113 227.034 973.997 227.601 971.993 228.52 970.155 229.763 966.986 231.907 964.278 235.067 962.323 238.901 960.351 242.768 959.174 247.15 958.823 251.927 958.782 252.484 958.317 252.909 957.767 252.909Z" fill="#FFFFFF"/><path d="M958.058 261.703C957.536 261.703 957.082 261.319 957.01 260.788 956.859 259.69 956.748 258.577 956.68 257.479 956.644 256.895 957.088 256.392 957.672 256.356 958.255 256.32 958.759 256.764 958.795 257.348 958.86 258.393 958.965 259.454 959.109 260.5 959.188 261.079 958.783 261.614 958.204 261.693 958.154 261.7 958.106 261.703 958.058 261.703Z" fill="#FFFFFF"/><path d="M1052.34 247.791C1052.23 247.791 1052.11 247.772 1051.99 247.732 1051.44 247.54 1051.15 246.936 1051.34 246.383 1053.01 241.592 1055.42 237.421 1058.52 233.986 1061.64 230.523 1065.38 227.969 1069.33 226.602 1071.65 225.799 1074.06 225.392 1076.48 225.391L1076.48 225.391C1077.07 225.391 1077.54 225.865 1077.54 226.45 1077.54 227.035 1077.07 227.509 1076.48 227.51 1074.3 227.51 1072.12 227.878 1070.02 228.604 1066.41 229.855 1062.97 232.207 1060.09 235.404 1057.19 238.629 1054.92 242.557 1053.34 247.08 1053.19 247.517 1052.78 247.791 1052.34 247.791Z" fill="#FFFFFF"/><path d="M1050.35 256.362C1050.3 256.362 1050.26 256.359 1050.21 256.353 1049.63 256.28 1049.22 255.75 1049.3 255.17 1049.44 254.072 1049.62 252.968 1049.83 251.888 1049.95 251.315 1050.51 250.944 1051.08 251.06 1051.66 251.176 1052.03 251.735 1051.91 252.309 1051.7 253.337 1051.53 254.389 1051.4 255.435 1051.33 255.97 1050.87 256.362 1050.35 256.362Z" fill="#FFFFFF"/><path d="M1007.9 159.069C1007.7 159.069 1007.49 159.01 1007.31 158.887 1006.82 158.558 1006.7 157.9 1007.02 157.415 1012.15 149.846 1019.89 145.328 1027.73 145.328 1028.31 145.328 1028.79 145.802 1028.79 146.387 1028.79 146.972 1028.31 147.446 1027.73 147.446 1020.59 147.446 1013.51 151.617 1008.78 158.603 1008.57 158.906 1008.24 159.069 1007.9 159.069Z" fill="#FFFFFF"/><path d="M1062.24 188.762C1061.95 188.762 1061.65 188.638 1061.44 188.396 1061.06 187.954 1061.11 187.285 1061.55 186.902 1068.46 180.918 1077.11 178.557 1084.68 180.585 1085.24 180.736 1085.58 181.317 1085.43 181.882 1085.27 182.447 1084.69 182.783 1084.13 182.631 1077.24 180.786 1069.32 182.981 1062.94 188.504 1062.74 188.677 1062.49 188.762 1062.24 188.762Z" fill="#FFFFFF"/><path d="M956.248 208.775C956.222 208.775 956.196 208.774 956.169 208.772 955.586 208.729 955.148 208.221 955.191 207.638 955.563 202.578 956.816 197.924 958.916 193.805 961.033 189.653 963.984 186.219 967.449 183.874 969.482 182.498 971.701 181.482 974.045 180.853 974.609 180.701 975.191 181.037 975.342 181.602 975.494 182.167 975.159 182.748 974.594 182.899 972.479 183.467 970.474 184.385 968.636 185.629 965.467 187.773 962.759 190.933 960.804 194.767 958.833 198.634 957.655 203.016 957.304 207.793 957.263 208.351 956.798 208.775 956.248 208.775Z" fill="#FFFFFF"/><path d="M956.539 217.57C956.017 217.57 955.563 217.185 955.49 216.654 955.34 215.555 955.229 214.441 955.161 213.345 955.125 212.761 955.569 212.258 956.153 212.222 956.735 212.185 957.24 212.63 957.276 213.214 957.341 214.258 957.446 215.318 957.59 216.366 957.669 216.946 957.264 217.48 956.684 217.559 956.635 217.566 956.587 217.57 956.539 217.57Z" fill="#FFFFFF"/></g></svg>