<svg width="258" height="248" xmlns="http://www.w3.org/2000/svg" xmlns:xlink="http://www.w3.org/1999/xlink" xml:space="preserve" overflow="hidden"><defs><clipPath id="clip0"><rect x="828" y="194" width="258" height="248"/></clipPath></defs><g clip-path="url(#clip0)" transform="translate(-828 -194)"><path d="M198.118 199.666 210.755 187.03C211.572 185.817 212.326 184.574 213.017 183.306L194.394 201.929C195.662 201.238 196.905 200.484 198.118 199.666Z" fill="#D2D2D2" transform="matrix(1.04032 0 0 1 828 194)"/><path d="M188.169 204.744 215.832 177.081C216.099 176.351 216.347 175.616 216.576 174.876L185.964 205.488C186.704 205.259 187.439 205.011 188.169 204.744Z" fill="#D2D2D2" transform="matrix(1.04032 0 0 1 828 194)"/><path d="M181.387 206.655 217.743 170.299C217.862 169.706 217.97 169.111 218.066 168.514L179.602 206.978C180.199 206.882 180.794 206.774 181.387 206.655Z" fill="#D2D2D2" transform="matrix(1.04032 0 0 1 828 194)"/><path d="M175.732 207.438 218.526 164.644C218.566 164.127 218.597 163.609 218.619 163.09L174.178 207.531C174.697 207.509 175.215 207.478 175.732 207.438Z" fill="#D2D2D2" transform="matrix(1.04032 0 0 1 828 194)"/><path d="M170.747 207.552 218.64 159.659C218.626 159.193 218.605 158.727 218.576 158.261L169.35 207.488C169.815 207.516 170.281 207.538 170.747 207.552Z" fill="#D2D2D2" transform="matrix(1.04032 0 0 1 828 194)"/><path d="M166.232 207.196 218.284 155.144C218.229 154.717 218.168 154.291 218.102 153.865L164.953 207.014C165.379 207.08 165.805 207.141 166.232 207.196Z" fill="#D2D2D2" transform="matrix(1.04032 0 0 1 828 194)"/><path d="M162.082 206.475 217.563 150.994C217.476 150.599 217.382 150.205 217.285 149.811L160.899 206.196C161.292 206.294 161.687 206.388 162.082 206.475Z" fill="#D2D2D2" transform="matrix(1.04032 0 0 1 828 194)"/><path d="M158.237 205.448 216.537 147.149C216.421 146.781 216.301 146.414 216.177 146.048L157.136 205.089C157.502 205.213 157.869 205.333 158.237 205.448Z" fill="#D2D2D2" transform="matrix(1.04032 0 0 1 828 194)"/><path d="M154.65 204.165 215.253 143.562C215.113 143.218 214.969 142.875 214.821 142.533L153.621 203.733C153.963 203.881 154.306 204.025 154.65 204.165Z" fill="#D2D2D2" transform="matrix(1.04032 0 0 1 828 194)"/><path d="M151.3 202.644 213.732 140.211C213.57 139.889 213.404 139.567 213.234 139.248L150.336 202.146C150.656 202.316 150.977 202.482 151.3 202.644Z" fill="#D2D2D2" transform="matrix(1.04032 0 0 1 828 194)"/><path d="M147.259 200.352C147.558 200.542 147.859 200.728 148.161 200.911L211.999 137.073C211.817 136.77 211.631 136.469 211.44 136.17L147.259 200.352Z" fill="#D2D2D2" transform="matrix(1.04032 0 0 1 828 194)"/><path d="M144.376 198.364C144.656 198.573 144.938 198.778 145.221 198.98L210.068 134.133C209.866 133.85 209.661 133.568 209.452 133.288L144.376 198.364Z" fill="#D2D2D2" transform="matrix(1.04032 0 0 1 828 194)"/><path d="M142.47 196.86 207.83 131.5 207.099 130.77 141.68 196.189C141.941 196.416 142.205 196.639 142.47 196.86Z" fill="#D2D2D2" transform="matrix(1.04032 0 0 1 828 194)"/><path d="M139.164 193.834C139.204 193.875 139.243 193.916 139.284 193.957 139.488 194.16 139.695 194.359 139.901 194.558L205.387 129.072 204.657 128.341 139.164 193.834Z" fill="#D2D2D2" transform="matrix(1.04032 0 0 1 828 194)"/><path d="M137.509 192.079 202.945 126.643 202.214 125.912 136.825 191.301C137.049 191.563 137.278 191.821 137.509 192.079Z" fill="#D2D2D2" transform="matrix(1.04032 0 0 1 828 194)"/><path d="M134.668 188.587C134.874 188.867 135.084 189.144 135.296 189.42L200.502 124.214 200.46 124.172C200.2 123.972 199.939 123.774 199.675 123.58L134.668 188.587Z" fill="#D2D2D2" transform="matrix(1.04032 0 0 1 828 194)"/><path d="M132.698 185.686C132.885 185.984 133.076 186.28 133.27 186.575L197.664 122.182C197.369 121.988 197.072 121.797 196.774 121.61L132.698 185.686Z" fill="#D2D2D2" transform="matrix(1.04032 0 0 1 828 194)"/><path d="M131.437 183.537 194.625 120.349C194.31 120.175 193.993 120.004 193.675 119.838L130.926 182.587C131.093 182.905 131.263 183.222 131.437 183.537Z" fill="#D2D2D2" transform="matrix(1.04032 0 0 1 828 194)"/><path d="M129.81 180.292 191.381 118.722C191.043 118.569 190.705 118.421 190.365 118.276L129.365 179.277C129.509 179.617 129.658 179.956 129.81 180.292Z" fill="#D2D2D2" transform="matrix(1.04032 0 0 1 828 194)"/><path d="M128.405 176.827 187.915 117.317C187.554 117.187 187.192 117.062 186.829 116.942L128.03 175.741C128.15 176.104 128.275 176.466 128.405 176.827Z" fill="#D2D2D2" transform="matrix(1.04032 0 0 1 828 194)"/><path d="M127.244 173.117 184.205 116.155C183.817 116.052 183.428 115.954 183.038 115.861L126.949 171.95C127.042 172.34 127.14 172.729 127.244 173.117Z" fill="#D2D2D2" transform="matrix(1.04032 0 0 1 828 194)"/><path d="M126.365 169.124 180.213 115.277C179.794 115.203 179.375 115.135 178.955 115.073L126.161 167.867C126.223 168.287 126.292 168.706 126.365 169.124Z" fill="#D2D2D2" transform="matrix(1.04032 0 0 1 828 194)"/><path d="M125.816 164.802 175.89 114.728C175.434 114.691 174.977 114.66 174.52 114.637L125.725 163.432C125.748 163.889 125.78 164.345 125.816 164.802Z" fill="#D2D2D2" transform="matrix(1.04032 0 0 1 828 194)"/><path d="M125.677 160.071 171.158 114.589C170.652 114.6 170.145 114.62 169.638 114.648L125.735 158.55C125.708 159.057 125.687 159.563 125.677 160.071Z" fill="#D2D2D2" transform="matrix(1.04032 0 0 1 828 194)"/><path d="M126.093 154.783 165.871 115.005C165.294 115.083 164.717 115.172 164.143 115.272L126.36 153.054C126.26 153.629 126.172 154.205 126.093 154.783Z" fill="#D2D2D2" transform="matrix(1.04032 0 0 1 828 194)"/><path d="M127.348 148.657 159.745 116.26C159.043 116.454 158.346 116.664 157.653 116.891L127.979 146.565C127.752 147.258 127.542 147.956 127.348 148.657Z" fill="#D2D2D2" transform="matrix(1.04032 0 0 1 828 194)"/><path d="M130.284 140.85 151.938 119.196C150.883 119.705 149.844 120.256 148.822 120.85L131.938 137.735C131.344 138.756 130.793 139.795 130.284 140.85Z" fill="#D2D2D2" transform="matrix(1.04032 0 0 1 828 194)"/><path d="M69.1145 90.2981 69.1145 90.2981C82.7341 76.6785 104.816 76.6785 118.435 90.2981L118.435 90.2981C132.055 103.918 132.055 125.999 118.435 139.619L118.435 139.619C104.816 153.238 82.7341 153.238 69.1145 139.619L69.1145 139.619C55.4952 125.999 55.4952 103.917 69.1145 90.2981Z" fill="#E6E6E6" transform="matrix(1.04032 0 0 1 828 194)"/><path d="M139.783 175.844 139.783 175.844C129.19 165.251 129.19 148.077 139.783 137.484L139.783 137.484C150.376 126.891 167.551 126.891 178.144 137.484L178.144 137.484C188.737 148.077 188.737 165.251 178.144 175.844L178.144 175.844C167.551 186.437 150.376 186.437 139.783 175.844Z" fill="#BB3E03" transform="matrix(1.04032 0 0 1 828 194)"/><path d="M130.45 217 129.95 217C125.808 217 122.45 213.642 122.45 209.5L122.45 209C122.45 204.858 125.808 201.5 129.95 201.5L130.45 201.5C134.592 201.5 137.95 204.858 137.95 209L137.95 209.5C137.95 213.642 134.592 217 130.45 217Z" fill="#E6E6E6" transform="matrix(1.04032 0 0 1 828 194)"/><path d="M78.8562 139.371C78.8562 140.976 77.5551 142.277 75.95 142.277 74.3449 142.277 73.0437 140.976 73.0437 139.371 73.0437 137.766 74.3449 136.465 75.95 136.465 77.5551 136.465 78.8562 137.766 78.8562 139.371Z" fill="#D2D2D2" transform="matrix(1.04032 0 0 1 828 194)"/><path d="M78.8562 124.84C78.8562 126.445 77.5551 127.746 75.95 127.746 74.3449 127.746 73.0437 126.445 73.0437 124.84 73.0437 123.235 74.3449 121.933 75.95 121.933 77.5551 121.933 78.8562 123.235 78.8562 124.84Z" fill="#D2D2D2" transform="matrix(1.04032 0 0 1 828 194)"/><path d="M67.5733 126.325C67.5733 127.93 66.2721 129.231 64.667 129.231 63.062 129.231 61.7608 127.93 61.7608 126.325 61.7608 124.72 63.062 123.419 64.667 123.419 66.2721 123.419 67.5733 124.72 67.5733 126.325Z" fill="#D2D2D2" transform="matrix(1.04032 0 0 1 828 194)"/><path d="M57.0594 130.68C57.0594 132.285 55.7582 133.586 54.1531 133.586 52.548 133.586 51.2469 132.285 51.2469 130.68 51.2469 129.075 52.548 127.774 54.1531 127.774 55.7582 127.774 57.0594 129.075 57.0594 130.68Z" fill="#D2D2D2" transform="matrix(1.04032 0 0 1 828 194)"/><path d="M48.0309 137.608C48.0309 139.213 46.7297 140.514 45.1246 140.514 43.5196 140.514 42.2184 139.213 42.2184 137.608 42.2184 136.003 43.5196 134.702 45.1246 134.702 46.7297 134.702 48.0309 136.003 48.0309 137.608Z" fill="#D2D2D2" transform="matrix(1.04032 0 0 1 828 194)"/><path d="M41.1029 146.636C41.1029 148.242 39.8017 149.543 38.1966 149.543 36.5916 149.543 35.2904 148.242 35.2904 146.636 35.2904 145.031 36.5916 143.73 38.1966 143.73 39.8017 143.73 41.1029 145.031 41.1029 146.636Z" fill="#D2D2D2" transform="matrix(1.04032 0 0 1 828 194)"/><path d="M36.7479 157.15C36.7479 158.755 35.4467 160.057 33.8417 160.057 32.2366 160.057 30.9354 158.755 30.9354 157.15 30.9354 155.545 32.2366 154.244 33.8417 154.244 35.4467 154.244 36.7479 155.545 36.7479 157.15Z" fill="#D2D2D2" transform="matrix(1.04032 0 0 1 828 194)"/><path d="M35.2625 168.433C35.2625 170.038 33.9613 171.34 32.3563 171.34 30.7512 171.34 29.45 170.038 29.45 168.433 29.45 166.828 30.7512 165.527 32.3563 165.527 33.9613 165.527 35.2625 166.828 35.2625 168.433Z" fill="#D2D2D2" transform="matrix(1.04032 0 0 1 828 194)"/><path d="M36.7479 179.716C36.7479 181.321 35.4467 182.623 33.8417 182.623 32.2366 182.623 30.9354 181.321 30.9354 179.716 30.9354 178.111 32.2366 176.81 33.8417 176.81 35.4467 176.81 36.7479 178.111 36.7479 179.716Z" fill="#D2D2D2" transform="matrix(1.04032 0 0 1 828 194)"/><path d="M41.1029 190.23C41.1029 191.835 39.8017 193.136 38.1966 193.136 36.5916 193.136 35.2904 191.835 35.2904 190.23 35.2904 188.625 36.5916 187.324 38.1966 187.324 39.8017 187.324 41.1029 188.625 41.1029 190.23Z" fill="#D2D2D2" transform="matrix(1.04032 0 0 1 828 194)"/><path d="M48.0309 199.259C48.0309 200.864 46.7297 202.165 45.1246 202.165 43.5196 202.165 42.2184 200.864 42.2184 199.259 42.2184 197.654 43.5196 196.352 45.1246 196.352 46.7297 196.352 48.0309 197.654 48.0309 199.259Z" fill="#D2D2D2" transform="matrix(1.04032 0 0 1 828 194)"/><path d="M57.0594 206.187C57.0594 207.792 55.7582 209.093 54.1531 209.093 52.548 209.093 51.2469 207.792 51.2469 206.187 51.2469 204.582 52.548 203.28 54.1531 203.28 55.7582 203.28 57.0594 204.582 57.0594 206.187Z" fill="#D2D2D2" transform="matrix(1.04032 0 0 1 828 194)"/><path d="M67.5733 210.542C67.5733 212.147 66.2721 213.448 64.667 213.448 63.062 213.448 61.7608 212.147 61.7608 210.542 61.7608 208.937 63.062 207.635 64.667 207.635 66.2721 207.635 67.5733 208.937 67.5733 210.542Z" fill="#D2D2D2" transform="matrix(1.04032 0 0 1 828 194)"/><path d="M78.8562 212.027C78.8562 213.632 77.5551 214.933 75.95 214.933 74.3449 214.933 73.0437 213.632 73.0437 212.027 73.0437 210.422 74.3449 209.121 75.95 209.121 77.5551 209.121 78.8562 210.422 78.8562 212.027Z" fill="#D2D2D2" transform="matrix(1.04032 0 0 1 828 194)"/><path d="M90.1392 210.542C90.1392 212.147 88.838 213.448 87.233 213.448 85.6279 213.448 84.3267 212.147 84.3267 210.542 84.3267 208.937 85.6279 207.635 87.233 207.635 88.838 207.635 90.1392 208.937 90.1392 210.542Z" fill="#D2D2D2" transform="matrix(1.04032 0 0 1 828 194)"/><path d="M100.653 206.187C100.653 207.792 99.3519 209.093 97.7469 209.093 96.1418 209.093 94.8406 207.792 94.8406 206.187 94.8406 204.582 96.1418 203.28 97.7469 203.28 99.3519 203.28 100.653 204.582 100.653 206.187Z" fill="#D2D2D2" transform="matrix(1.04032 0 0 1 828 194)"/><path d="M109.682 199.259C109.682 200.864 108.38 202.165 106.775 202.165 105.17 202.165 103.869 200.864 103.869 199.259 103.869 197.654 105.17 196.352 106.775 196.352 108.38 196.352 109.682 197.654 109.682 199.259Z" fill="#D2D2D2" transform="matrix(1.04032 0 0 1 828 194)"/><path d="M116.61 190.23C116.61 191.835 115.308 193.136 113.703 193.136 112.098 193.136 110.797 191.835 110.797 190.23 110.797 188.625 112.098 187.324 113.703 187.324 115.308 187.324 116.61 188.625 116.61 190.23Z" fill="#D2D2D2" transform="matrix(1.04032 0 0 1 828 194)"/><path d="M120.965 179.716C120.965 181.321 119.663 182.623 118.058 182.623 116.453 182.623 115.152 181.321 115.152 179.716 115.152 178.111 116.453 176.81 118.058 176.81 119.663 176.81 120.965 178.111 120.965 179.716Z" fill="#D2D2D2" transform="matrix(1.04032 0 0 1 828 194)"/><path d="M122.45 168.433C122.45 170.038 121.149 171.34 119.544 171.34 117.939 171.34 116.637 170.038 116.637 168.433 116.637 166.828 117.939 165.527 119.544 165.527 121.149 165.527 122.45 166.828 122.45 168.433Z" fill="#D2D2D2" transform="matrix(1.04032 0 0 1 828 194)"/><path d="M120.965 157.15C120.965 158.755 119.663 160.057 118.058 160.057 116.453 160.057 115.152 158.755 115.152 157.15 115.152 155.545 116.453 154.244 118.058 154.244 119.663 154.244 120.965 155.545 120.965 157.15Z" fill="#D2D2D2" transform="matrix(1.04032 0 0 1 828 194)"/><path d="M116.61 146.636C116.61 148.242 115.308 149.543 113.703 149.543 112.098 149.543 110.797 148.242 110.797 146.636 110.797 145.031 112.098 143.73 113.703 143.73 115.308 143.73 116.61 145.031 116.61 146.636Z" fill="#D2D2D2" transform="matrix(1.04032 0 0 1 828 194)"/><path d="M109.682 137.608C109.682 139.213 108.38 140.514 106.775 140.514 105.17 140.514 103.869 139.213 103.869 137.608 103.869 136.003 105.17 134.702 106.775 134.702 108.38 134.702 109.682 136.003 109.682 137.608Z" fill="#D2D2D2" transform="matrix(1.04032 0 0 1 828 194)"/><path d="M100.653 130.68C100.653 132.285 99.3519 133.586 97.7469 133.586 96.1418 133.586 94.8406 132.285 94.8406 130.68 94.8406 129.075 96.1418 127.774 97.7469 127.774 99.3519 127.774 100.653 129.075 100.653 130.68Z" fill="#D2D2D2" transform="matrix(1.04032 0 0 1 828 194)"/><path d="M90.1392 126.325C90.1392 127.93 88.838 129.231 87.233 129.231 85.6279 129.231 84.3267 127.93 84.3267 126.325 84.3267 124.72 85.6279 123.419 87.233 123.419 88.838 123.419 90.1392 124.72 90.1392 126.325Z" fill="#D2D2D2" transform="matrix(1.04032 0 0 1 828 194)"/><path d="M64.325 143.264C64.325 144.87 63.0238 146.171 61.4187 146.171 59.8137 146.171 58.5125 144.87 58.5125 143.264 58.5125 141.659 59.8137 140.358 61.4187 140.358 63.0238 140.358 64.325 141.659 64.325 143.264Z" fill="#D2D2D2" transform="matrix(1.04032 0 0 1 828 194)"/><path d="M53.6874 153.902C53.6874 155.507 52.3862 156.808 50.7811 156.808 49.176 156.808 47.8749 155.507 47.8749 153.902 47.8749 152.297 49.176 150.996 50.7811 150.996 52.3862 150.996 53.6874 152.297 53.6874 153.902Z" fill="#D2D2D2" transform="matrix(1.04032 0 0 1 828 194)"/><path d="M49.7937 168.433C49.7937 170.038 48.4926 171.34 46.8875 171.34 45.2824 171.34 43.9812 170.038 43.9812 168.433 43.9812 166.828 45.2824 165.527 46.8875 165.527 48.4926 165.527 49.7937 166.828 49.7937 168.433Z" fill="#D2D2D2" transform="matrix(1.04032 0 0 1 828 194)"/><path d="M53.6874 182.965C53.6874 184.57 52.3862 185.871 50.7811 185.871 49.176 185.871 47.8749 184.57 47.8749 182.965 47.8749 181.359 49.176 180.058 50.7811 180.058 52.3862 180.058 53.6874 181.359 53.6874 182.965Z" fill="#D2D2D2" transform="matrix(1.04032 0 0 1 828 194)"/><path d="M64.325 193.602C64.325 195.207 63.0238 196.508 61.4187 196.508 59.8137 196.508 58.5125 195.207 58.5125 193.602 58.5125 191.997 59.8137 190.696 61.4187 190.696 63.0238 190.696 64.325 191.997 64.325 193.602Z" fill="#D2D2D2" transform="matrix(1.04032 0 0 1 828 194)"/><path d="M78.8562 197.496C78.8562 199.101 77.5551 200.402 75.95 200.402 74.3449 200.402 73.0437 199.101 73.0437 197.496 73.0437 195.891 74.3449 194.59 75.95 194.59 77.5551 194.59 78.8562 195.891 78.8562 197.496Z" fill="#D2D2D2" transform="matrix(1.04032 0 0 1 828 194)"/><path d="M93.3875 193.602C93.3875 195.207 92.0863 196.508 90.4812 196.508 88.8762 196.508 87.575 195.207 87.575 193.602 87.575 191.997 88.8762 190.696 90.4812 190.696 92.0863 190.696 93.3875 191.997 93.3875 193.602Z" fill="#D2D2D2" transform="matrix(1.04032 0 0 1 828 194)"/><path d="M104.025 182.965C104.025 184.57 102.724 185.871 101.119 185.871 99.5138 185.871 98.2126 184.57 98.2126 182.965 98.2126 181.359 99.5138 180.058 101.119 180.058 102.724 180.058 104.025 181.359 104.025 182.965Z" fill="#D2D2D2" transform="matrix(1.04032 0 0 1 828 194)"/><path d="M107.919 168.433C107.919 170.038 106.618 171.34 105.012 171.34 103.407 171.34 102.106 170.038 102.106 168.433 102.106 166.828 103.407 165.527 105.012 165.527 106.618 165.527 107.919 166.828 107.919 168.433Z" fill="#D2D2D2" transform="matrix(1.04032 0 0 1 828 194)"/><path d="M104.025 153.902C104.025 155.507 102.724 156.808 101.119 156.808 99.5138 156.808 98.2126 155.507 98.2126 153.902 98.2126 152.297 99.5138 150.996 101.119 150.996 102.724 150.996 104.025 152.297 104.025 153.902Z" fill="#D2D2D2" transform="matrix(1.04032 0 0 1 828 194)"/><path d="M93.3875 143.264C93.3875 144.87 92.0863 146.171 90.4812 146.171 88.8762 146.171 87.575 144.87 87.575 143.264 87.575 141.659 88.8762 140.358 90.4812 140.358 92.0863 140.358 93.3875 141.659 93.3875 143.264Z" fill="#D2D2D2" transform="matrix(1.04032 0 0 1 828 194)"/><path d="M78.8562 153.902C78.8562 155.507 77.5551 156.808 75.95 156.808 74.3449 156.808 73.0437 155.507 73.0437 153.902 73.0437 152.297 74.3449 150.996 75.95 150.996 77.5551 150.996 78.8562 152.297 78.8562 153.902Z" fill="#D2D2D2" transform="matrix(1.04032 0 0 1 828 194)"/><path d="M66.2718 161.168C66.2718 162.773 64.9706 164.074 63.3656 164.074 61.7605 164.074 60.4593 162.773 60.4593 161.168 60.4593 159.563 61.7605 158.261 63.3656 158.261 64.9706 158.261 66.2718 159.563 66.2718 161.168Z" fill="#D2D2D2" transform="matrix(1.04032 0 0 1 828 194)"/><path d="M66.2718 175.699C66.2718 177.304 64.9706 178.605 63.3656 178.605 61.7605 178.605 60.4593 177.304 60.4593 175.699 60.4593 174.094 61.7605 172.793 63.3656 172.793 64.9706 172.793 66.2718 174.094 66.2718 175.699Z" fill="#D2D2D2" transform="matrix(1.04032 0 0 1 828 194)"/><path d="M78.8562 182.965C78.8562 184.57 77.5551 185.871 75.95 185.871 74.3449 185.871 73.0437 184.57 73.0437 182.965 73.0437 181.359 74.3449 180.058 75.95 180.058 77.5551 180.058 78.8562 181.359 78.8562 182.965Z" fill="#D2D2D2" transform="matrix(1.04032 0 0 1 828 194)"/><path d="M91.4407 175.699C91.4407 177.304 90.1395 178.605 88.5344 178.605 86.9294 178.605 85.6282 177.304 85.6282 175.699 85.6282 174.094 86.9294 172.793 88.5344 172.793 90.1395 172.793 91.4407 174.094 91.4407 175.699Z" fill="#D2D2D2" transform="matrix(1.04032 0 0 1 828 194)"/><path d="M78.8557 168.433C78.8557 170.038 77.5546 171.339 75.9495 171.339 74.3444 171.339 73.0432 170.038 73.0432 168.433 73.0432 166.828 74.3444 165.527 75.9495 165.527 77.5546 165.527 78.8557 166.828 78.8557 168.433Z" fill="#D2D2D2" transform="matrix(1.04032 0 0 1 828 194)"/><path d="M91.4407 161.168C91.4407 162.773 90.1395 164.074 88.5344 164.074 86.9294 164.074 85.6282 162.773 85.6282 161.168 85.6282 159.563 86.9294 158.261 88.5344 158.261 90.1395 158.261 91.4407 159.563 91.4407 161.168Z" fill="#D2D2D2" transform="matrix(1.04032 0 0 1 828 194)"/><path d="M120.383 124.258C94.6006 124.258 73.625 103.283 73.625 77.5 73.625 51.7173 94.6006 30.7417 120.383 30.7417 146.166 30.7417 167.142 51.7173 167.142 77.5 167.142 103.283 146.166 124.258 120.383 124.258ZM120.383 31.2583C94.8856 31.2583 74.1417 52.0022 74.1417 77.5 74.1417 102.998 94.8856 123.742 120.383 123.742 145.881 123.742 166.625 102.998 166.625 77.5 166.625 52.0022 145.881 31.2583 120.383 31.2583Z" fill="#D2D2D2" transform="matrix(1.04032 0 0 1 828 194)"/><path d="M120.383 121.039C96.3756 121.039 76.8441 101.508 76.8441 77.5 76.8441 53.4923 96.3756 33.9608 120.383 33.9608 144.391 33.9608 163.922 53.4923 163.922 77.5 163.922 101.508 144.391 121.039 120.383 121.039ZM120.383 34.4774C96.6606 34.4774 77.3608 53.7772 77.3608 77.5 77.3608 101.223 96.6606 120.523 120.383 120.523 144.106 120.523 163.406 101.223 163.406 77.5 163.406 53.7772 144.106 34.4774 120.383 34.4774Z" fill="#D2D2D2" transform="matrix(1.04032 0 0 1 828 194)"/><path d="M120.383 117.82C98.1509 117.82 80.0634 99.7324 80.0634 77.5 80.0634 55.2676 98.1509 37.1801 120.383 37.1801 142.616 37.1801 160.703 55.2676 160.703 77.5 160.703 99.7324 142.616 117.82 120.383 117.82ZM120.383 37.6968C98.4358 37.6968 80.5801 55.5525 80.5801 77.5 80.5801 99.4475 98.4358 117.303 120.383 117.303 142.331 117.303 160.187 99.4475 160.187 77.5 160.187 55.5525 142.331 37.6968 120.383 37.6968Z" fill="#D2D2D2" transform="matrix(1.04032 0 0 1 828 194)"/><path d="M120.383 114.601C99.9262 114.601 83.2828 97.9572 83.2828 77.5 83.2828 57.0428 99.9262 40.3995 120.383 40.3995 140.84 40.3995 157.484 57.0428 157.484 77.5 157.484 97.9572 140.84 114.601 120.383 114.601ZM120.383 40.9161C100.211 40.9161 83.7995 57.3275 83.7995 77.5 83.7995 97.6725 100.211 114.084 120.383 114.084 140.556 114.084 156.967 97.6725 156.967 77.5 156.967 57.3275 140.556 40.9161 120.383 40.9161Z" fill="#D2D2D2" transform="matrix(1.04032 0 0 1 828 194)"/><path d="M120.383 111.381C101.701 111.381 86.5019 96.1824 86.5019 77.5 86.5019 58.8176 101.701 43.6185 120.383 43.6185 139.065 43.6185 154.265 58.8178 154.265 77.5 154.265 96.1821 139.065 111.381 120.383 111.381ZM120.383 44.1352C101.986 44.1352 87.0185 59.1025 87.0185 77.5 87.0185 95.8975 101.986 110.865 120.383 110.865 138.781 110.865 153.748 95.8975 153.748 77.5 153.748 59.1025 138.781 44.1352 120.383 44.1352Z" fill="#D2D2D2" transform="matrix(1.04032 0 0 1 828 194)"/><path d="M120.383 108.162C103.476 108.162 89.7212 94.4071 89.7212 77.5 89.7212 60.5929 103.476 46.8379 120.383 46.8379 137.29 46.8379 151.045 60.5929 151.045 77.5 151.045 94.4071 137.29 108.162 120.383 108.162ZM120.383 47.3546C103.761 47.3546 90.2379 60.8778 90.2379 77.5 90.2379 94.1222 103.761 107.645 120.383 107.645 137.006 107.645 150.529 94.1222 150.529 77.5 150.529 60.8778 137.006 47.3546 120.383 47.3546Z" fill="#D2D2D2" transform="matrix(1.04032 0 0 1 828 194)"/><path d="M120.383 104.943C105.251 104.943 92.9403 92.6321 92.9403 77.5 92.9403 62.3679 105.251 50.057 120.383 50.057 135.515 50.057 147.826 62.3679 147.826 77.5 147.826 92.6321 135.515 104.943 120.383 104.943ZM120.383 50.5737C105.536 50.5737 93.457 62.6528 93.457 77.5 93.457 92.3472 105.536 104.426 120.383 104.426 135.231 104.426 147.309 92.3472 147.309 77.5 147.309 62.6528 135.231 50.5737 120.383 50.5737Z" fill="#D2D2D2" transform="matrix(1.04032 0 0 1 828 194)"/><path d="M120.383 101.724C107.026 101.724 96.1597 90.8571 96.1597 77.5 96.1597 64.1429 107.026 53.2763 120.383 53.2763 133.74 53.2763 144.607 64.1429 144.607 77.5 144.607 90.8571 133.74 101.724 120.383 101.724ZM120.383 53.793C107.311 53.793 96.6763 64.4278 96.6763 77.5 96.6763 90.5722 107.311 101.207 120.383 101.207 133.456 101.207 144.091 90.5722 144.091 77.5 144.091 64.4278 133.456 53.793 120.383 53.793Z" fill="#D2D2D2" transform="matrix(1.04032 0 0 1 828 194)"/><path d="M120.383 98.5046C108.801 98.5046 99.3788 89.0819 99.3788 77.5 99.3788 65.9181 108.801 56.4954 120.383 56.4954 131.965 56.4954 141.388 65.9181 141.388 77.5 141.388 89.0819 131.965 98.5046 120.383 98.5046ZM120.383 57.0121C109.086 57.0121 99.8954 66.2028 99.8954 77.5 99.8954 88.7972 109.086 97.9879 120.383 97.9879 131.68 97.9879 140.871 88.7969 140.871 77.5 140.871 66.2031 131.68 57.0121 120.383 57.0121Z" fill="#D2D2D2" transform="matrix(1.04032 0 0 1 828 194)"/><path d="M120.383 95.2852C110.576 95.2852 102.598 87.3068 102.598 77.5 102.598 67.6931 110.576 59.7148 120.383 59.7148 130.19 59.7148 138.169 67.6931 138.169 77.5 138.169 87.3068 130.19 95.2852 120.383 95.2852ZM120.383 60.2314C110.861 60.2314 103.115 67.9781 103.115 77.5 103.115 87.0219 110.861 94.7685 120.383 94.7685 129.905 94.7685 137.652 87.0219 137.652 77.5 137.652 67.9781 129.905 60.2314 120.383 60.2314Z" fill="#D2D2D2" transform="matrix(1.04032 0 0 1 828 194)"/><path d="M120.383 92.0661C112.351 92.0661 105.817 85.5318 105.817 77.5 105.817 69.4682 112.351 62.9339 120.383 62.9339 128.415 62.9339 134.949 69.4682 134.949 77.5 134.949 85.5318 128.415 92.0661 120.383 92.0661ZM120.383 63.4505C112.636 63.4505 106.334 69.7531 106.334 77.5 106.334 85.2469 112.636 91.5495 120.383 91.5495 128.13 91.5495 134.433 85.2469 134.433 77.5 134.433 69.7531 128.13 63.4505 120.383 63.4505Z" fill="#D2D2D2" transform="matrix(1.04032 0 0 1 828 194)"/><path d="M120.383 88.8468C114.127 88.8468 109.037 83.7566 109.037 77.5 109.037 71.2434 114.127 66.1532 120.383 66.1532 126.64 66.1532 131.73 71.2434 131.73 77.5 131.73 83.7566 126.64 88.8468 120.383 88.8468ZM120.383 66.6699C114.412 66.6699 109.553 71.5284 109.553 77.5 109.553 83.4716 114.412 88.3301 120.383 88.3301 126.355 88.3301 131.213 83.4716 131.213 77.5 131.213 71.5284 126.355 66.6699 120.383 66.6699Z" fill="#D2D2D2" transform="matrix(1.04032 0 0 1 828 194)"/><path d="M120.383 85.6274C115.902 85.6274 112.256 81.9813 112.256 77.5 112.256 73.0187 115.902 69.3726 120.383 69.3726 124.865 69.3726 128.511 73.0187 128.511 77.5 128.511 81.9813 124.865 85.6274 120.383 85.6274ZM120.383 69.8892C116.187 69.8892 112.773 73.3034 112.773 77.5 112.773 81.6966 116.187 85.1108 120.383 85.1108 124.58 85.1108 127.994 81.6966 127.994 77.5 127.994 73.3034 124.58 69.8892 120.383 69.8892Z" fill="#D2D2D2" transform="matrix(1.04032 0 0 1 828 194)"/><path d="M120.383 82.4083C117.677 82.4083 115.475 80.2066 115.475 77.5 115.475 74.7934 117.677 72.5917 120.383 72.5917 123.09 72.5917 125.292 74.7934 125.292 77.5 125.292 80.2066 123.09 82.4083 120.383 82.4083ZM120.383 73.1083C117.962 73.1083 115.992 75.0784 115.992 77.5 115.992 79.9216 117.962 81.8917 120.383 81.8917 122.805 81.8917 124.775 79.9216 124.775 77.5 124.775 75.0784 122.805 73.1083 120.383 73.1083Z" fill="#D2D2D2" transform="matrix(1.04032 0 0 1 828 194)"/><path d="M163.645 101.267 163.405 101.267C152.771 101.267 144.15 92.6458 144.15 82.0115L144.15 81.7715C144.15 71.1375 152.771 62.5167 163.405 62.5167L163.645 62.5167C174.279 62.5167 182.9 71.1375 182.9 81.7718L182.9 82.0118C182.9 92.6458 174.279 101.267 163.645 101.267Z" fill="#D2D2D2" transform="matrix(1.04032 0 0 1 828 194)"/></g></svg>